<?xml version="1.0" encoding="utf-8"?>
<!-- Generator: Fusion 360, Shaper Origin Export Add-In, Version 1.6.3  -->
<svg xmlns="http://www.w3.org/2000/svg" xmlns:xlink="http://www.w3.org/1999/xlink" xmlns:shaper="http://www.shapertools.com/namespaces/shaper" shaper:fusionaddin="version:1.6.3" width="1.4099489cm" height="1.3797401cm" version="1.1" x="0cm" y="0cm" viewBox="0 0 1.4099489 1.3797401" enable-background="new 0 0 1.4099489 1.3797401" xml:space="preserve"><path d="M-0.68,0 L-0.68,0 -0.6793777,0.0208467 -0.6781012,0.0416506 -0.6761776,0.0623934 -0.6736137,0.0830572 -0.6704165,0.1036239 -0.6665928,0.1240754 -0.6621495,0.1443935 -0.6570937,0.1645603 -0.6514321,0.1845576 -0.6451718,0.2043673 -0.6383196,0.2239714 -0.6308825,0.2433518 -0.6228673,0.2624904 -0.614281,0.2813691 -0.6051304,0.2999698 -0.5954226,0.3182745 -0.5851645,0.336265 -0.5743628,0.3539233 -0.5630246,0.3712313 -0.5511568,0.3881709 -0.5387663,0.404724 -0.5258619,0.4208644 -0.5124593,0.4365693 -0.4985757,0.45183 -0.4842279,0.4666381 -0.4694331,0.480985 -0.4542082,0.4948623 -0.4385703,0.5082614 -0.4225363,0.5211738 -0.4061232,0.5335911 -0.3893482,0.5455047 -0.3722282,0.556906 -0.3547802,0.5677867 -0.3370212,0.5781382 -0.3189682,0.587952 -0.3006384,0.5972195 -0.2820486,0.6059324 -0.2632159,0.614082 -0.2441573,0.6216598 -0.2248899,0.6286574 -0.2054306,0.6350663 -0.1857964,0.6408779 -0.1660044,0.6460838 -0.1460716,0.6506753 -0.126015,0.6546441 -0.1058516,0.6579816 -0.0855984,0.6606794 -0.0652725,0.6627288 -0.0448959,0.6641221 -0.024503,0.6648598 -0.004113,0.6649488 0.0162568,0.6643959 0.0365888,0.6632079 0.0568655,0.6613916 0.0770694,0.658954 0.097183,0.6559019 0.1171888,0.6522421 0.1370692,0.6479815 0.1568069,0.6431269 0.1763842,0.6376852 0.1957837,0.6316632 0.2149879,0.6250678 0.2339792,0.6179058 0.2527402,0.6101841 0.2712533,0.6019096 0.2895011,0.593089 0.307466,0.5837292 0.3251305,0.5738372 0.3424772,0.5634197 0.3594885,0.5524835 0.3761469,0.5410356 0.3924349,0.5290828 0.408335,0.5166319 0.4238298,0.5036898 0.4389016,0.4902633 0.4535317,0.4763609 0.467695,0.4620067 0.481382,0.4472206 0.4945861,0.4320198 0.5073009,0.4164219 0.5195197,0.4004442 0.5312362,0.3841041 0.5424438,0.3674189 0.553136,0.3504062 0.5633063,0.3330831 0.5729482,0.3154673 0.5906208,0.2794265 0.6061017,0.2424229 0.6193391,0.2045957 0.6251001,0.1854166 0.6302807,0.1660838 0.6348744,0.1466147 0.6388746,0.1270266 0.6422749,0.1073368 0.6450688,0.0875629 0.6472498,0.0677222 0.6488113,0.047832 0.6497468,0.0279098 0.6500499,0.007973 0.649714,-0.0119612 0.6487358,-0.0318652 0.6471222,-0.0517094 0.6448816,-0.0714776 0.6420227,-0.0911534 0.6385538,-0.1107207 0.6344837,-0.1301633 0.6298208,-0.1494648 0.6245736,-0.1686091 0.6187506,-0.1875799 0.6054117,-0.224936 0.5898721,-0.2614035 0.5722002,-0.2968522 0.5524643,-0.3311525 0.5307325,-0.3641743 0.507073,-0.3957878 0.4945418,-0.4110258 0.4815543,-0.4258631 0.4681189,-0.4402833 0.4542444,-0.4542703 0.4399391,-0.4678078 0.4252116,-0.4808796 0.4100739,-0.4934674 0.3945535,-0.5055511 0.3786692,-0.5171251 0.3624388,-0.528185 0.3458796,-0.5387263 0.3290094,-0.5487446 0.294406,-0.5671949 0.258769,-0.5835007 0.222239,-0.5976268 0.1849565,-0.609538 0.147062,-0.6191992 0.1086962,-0.6265751 0.0699995,-0.6316307 0.0311125,-0.6343307 0.0116415,-0.6347864 -0.0078244,-0.63464 -0.0272675,-0.6338871 -0.0466705,-0.6325234 -0.0660156,-0.6305444 -0.0852852,-0.6279457 -0.104449,-0.6247287 -0.1234825,-0.6209035 -0.1423709,-0.6164801 -0.1610994,-0.6114688 -0.1980179,-0.5997225 -0.2341203,-0.5857457 -0.2692885,-0.5696192 -0.3034046,-0.5514241 -0.3363509,-0.5312411 -0.3680093,-0.5091514 -0.3982621,-0.4852358 -0.4269913,-0.4595752 -0.4540789,-0.4322507 -0.4794072,-0.4033432 -0.4913747,-0.388321 -0.5028582,-0.3729335 -0.5138429,-0.3571907 -0.5243132,-0.3411045 -0.534251,-0.3247034 -0.5436518,-0.3080082 -0.5608343,-0.2738051 -0.5758443,-0.2386356 -0.5886654,-0.2026397 -0.5992811,-0.1659576 -0.607675,-0.1287295 -0.6138307,-0.0910956 -0.6177319,-0.053196 -0.619362,-0.0151709 -0.6187047,0.0228396 -0.6157435,0.0606953 -0.6104621,0.0982559 -0.602844,0.1353814 -0.5981535,0.1537372 -0.5928744,0.1719284 -0.5870179,0.1899239 -0.5805965,0.2077083 -0.5661056,0.2425927 -0.5494951,0.2764782 -0.5308586,0.3092616 -0.5102896,0.3408397 -0.4878816,0.3711092 -0.4637282,0.3999668 -0.4379229,0.4273094 -0.4105592,0.4530336 -0.3817307,0.4770362 -0.3515308,0.4992139 -0.3200531,0.5194634 -0.2873912,0.5376817 -0.2706454,0.5459967 -0.2536473,0.5537634 -0.2189978,0.5676273 -0.183592,0.579267 -0.1475676,0.5886848 -0.111062,0.5958831 -0.0742124,0.6008641 -0.0371565,0.6036301 -0.0000316,0.6041835 0.0370248,0.6025265 0.0738753,0.5986615 0.1103825,0.5925908 0.1464089,0.5843166 0.1818171,0.5738413 0.2164697,0.5611671 0.2502187,0.546305 0.282892,0.5293415 0.314393,0.5103829 0.3446344,0.4895332 0.3735292,0.4668962 0.40099,0.4425757 0.4269296,0.4166755 0.451261,0.3892995 0.4738968,0.3605514 0.4947499,0.3305351 0.513733,0.2993543 0.5307591,0.267113 0.5457408,0.233915 0.558591,0.1998639 0.5692221,0.1650793 0.5775906,0.1297465 0.5837145,0.0940049 0.5876151,0.0579867 0.589314,0.0218237 0.5888324,-0.014352 0.5861919,-0.0504085 0.5814138,-0.0862139 0.5745195,-0.1216361 0.5655306,-0.1565431 0.5544684,-0.1908031 0.5413543,-0.2242839 0.5262098,-0.2568538 0.5090562,-0.2883806 0.4899252,-0.318723 0.4689261,-0.347727 0.4461755,-0.3753153 0.421786,-0.4014195 0.3958704,-0.425971 0.3685411,-0.4489015 0.3399109,-0.4701425 0.3100923,-0.4896255 0.2791981,-0.5072821 0.2473409,-0.5230439 0.2146333,-0.5368423 0.1811879,-0.5486089 0.1471173,-0.5582754 0.1125343,-0.5657731 0.0775605,-0.5710344 0.0423814,-0.5740345 0.007134,-0.57481 -0.0280585,-0.573402 -0.0630728,-0.5698516 -0.0977856,-0.5642001 -0.1320739,-0.5564884 -0.1658143,-0.5467579 -0.1988836,-0.5350495 -0.2311587,-0.5214045 -0.2625162,-0.505864 -0.2928331,-0.4884691 -0.321986,-0.4692609 -0.3498517,-0.4482807 -0.376305,-0.4255719 -0.4012023,-0.401246 -0.4244739,-0.3754341 -0.4460728,-0.3482553 -0.4659521,-0.3198287 -0.484065,-0.2902734 -0.5003643,-0.2597084 -0.5148032,-0.2282528 -0.5273348,-0.1960257 -0.537912,-0.1631462 -0.546488,-0.1297333 -0.5530158,-0.0959061 -0.5574485,-0.0617836 -0.5597391,-0.027485 -0.5598406,0.0068706 -0.5577285,0.0411192 -0.5534494,0.075104 -0.5470641,0.1087144 -0.5386334,0.14184 -0.5282179,0.1743702 -0.5158784,0.2061947 -0.5016756,0.2372029 -0.4856702,0.2672843 -0.4679229,0.2963284 -0.4484945,0.3242248 -0.4274455,0.350863 -0.4048369,0.3761325 -0.3807291,0.3999227 -0.3551831,0.4221233 -0.3282794,0.4426155 -0.3001714,0.4613037 -0.2709849,0.4781621 -0.2408418,0.4931686 -0.2098644,0.5063012 -0.1781746,0.5175378 -0.1458945,0.5268562 -0.1131462,0.5342344 -0.0800518,0.5396503 -0.0467333,0.5430817 -0.0133128,0.5445067 0.0200877,0.543903 0.053346,0.5412486 0.0863402,0.5365215 0.1189479,0.5296994 0.1510057,0.5207977 0.1823774,0.509896 0.2129703,0.4970739 0.2426915,0.482411 0.2714483,0.4659869 0.2991479,0.4478812 0.3256974,0.4281735 0.3510041,0.4069432 0.3749753,0.3842702 0.397518,0.3602338 0.4185396,0.3349137 0.4379473,0.3083896 0.4556482,0.2807409 0.4715495,0.2520473 0.4855556,0.2224143 0.497615,0.192005 0.5077287,0.1609421 0.5158989,0.129346 0.5221276,0.097337 0.5264172,0.0650353 0.5287698,0.0325613 0.5291875,0.0000353 0.5276726,-0.0324225 0.5242272,-0.0646917 0.5188535,-0.096652 0.5115538,-0.1281831 0.5023301,-0.1591648 0.4911847,-0.1894766 0.4781238,-0.2189928 0.4632179,-0.2475552 0.446564,-0.2750744 0.4282549,-0.3014768 0.4083837,-0.3266892 0.3870432,-0.350638 0.3643262,-0.37325 0.3403258,-0.3944517 0.3151348,-0.4141697 0.288846,-0.4323306 0.2615525,-0.4488611 0.233347,-0.4636877 0.2043226,-0.476737 0.174572,-0.4879357 0.1441883,-0.4972103 0.1133075,-0.5044941 0.0820853,-0.509785 0.0506354,-0.5131082 0.0190715,-0.5144892 -0.0124928,-0.5139533 -0.0439438,-0.5115258 -0.0751678,-0.5072322 -0.1060513,-0.5010977 -0.1364804,-0.4931478 -0.1663416,-0.4834077 -0.1955212,-0.4719029 -0.2239055,-0.4586587 -0.2513809,-0.4437005 -0.2778337,-0.4270535 -0.3031438,-0.4087508 -0.3271771,-0.3888964 -0.3498719,-0.3675989 -0.3711775,-0.3449609 -0.3910432,-0.3210851 -0.4094183,-0.2960742 -0.426252,-0.2700308 -0.4414936,-0.2430576 -0.4550924,-0.2152572 -0.4669977,-0.1867323 -0.4771587,-0.1575856 -0.4855248,-0.1279197 -0.4920451,-0.0978374 -0.4966691,-0.0674412 -0.499346,-0.0368338 -0.5000377,-0.0061538 -0.4987714,0.0244457 -0.4955948,0.0548625 -0.4905557,0.0849947 -0.4837017,0.1147402 -0.4750806,0.1439973 -0.4647402,0.1726638 -0.4527281,0.200638 -0.4390921,0.2278178 -0.42388,0.2541014 -0.4071394,0.2793869 -0.3889182,0.3035722 -0.369264,0.3265555 -0.3482246,0.3482348 -0.3258504,0.3685066 -0.3022571,0.3872571 -0.2775668,0.4044418 -0.2518872,0.4200355 -0.225326,0.4340127 -0.1979906,0.4463481 -0.1699889,0.4570162 -0.1414283,0.4659919 -0.1124167,0.4732496 -0.0830615,0.478764 -0.0534704,0.4825098 -0.0237512,0.4844616 0.0059887,0.484594 0.0356415,0.4828817 0.0650996,0.4792993 0.0942429,0.4738274 0.1229132,0.4665072 0.1510172,0.4574074 0.1784701,0.4465956 0.2051871,0.4341398 0.2310833,0.4201078 0.2560739,0.4045675 0.2800742,0.3875866 0.3029992,0.3692332 0.3247643,0.3495749 0.3452845,0.3286796 0.3644752,0.3066153 0.3822513,0.2834496 0.3985283,0.2592505 0.4132211,0.2340859 0.4262413,0.2080499 0.4375404,0.1812912 0.4471188,0.1539183 0.4549782,0.1260379 0.4611201,0.0977565 0.4655462,0.0691809 0.4682579,0.0404176 0.469257,0.0115732 0.468545,-0.0172457 0.4661234,-0.0459324 0.4619939,-0.0743804 0.4561581,-0.102483 0.4486176,-0.1301337 0.4393738,-0.1572257 0.4284285,-0.1836525 0.41581,-0.2092822 0.4016083,-0.2339975 0.3859076,-0.2577357 0.3687918,-0.2804343 0.3503449,-0.3020308 0.3306507,-0.3224628 0.3097932,-0.3416677 0.2878563,-0.3595831 0.2649239,-0.3761466 0.2410801,-0.3912956 0.2164086,-0.4049677 0.1909935,-0.4171004 0.1649186,-0.4276313 0.138268,-0.4364978 0.1111254,-0.4436376 0.0836153,-0.4489951 0.0558802,-0.4525739 0.0280188,-0.4544025 0.0001297,-0.4545094 -0.0276885,-0.4529232 -0.0553372,-0.4496722 -0.0827178,-0.444785 -0.1097319,-0.4382901 -0.1362807,-0.430216 -0.1622657,-0.4205911 -0.1875883,-0.409444 -0.21215,-0.3968031 -0.2358522,-0.382697 -0.2585962,-0.3671541 -0.2802835,-0.3502029 -0.3007978,-0.3319051 -0.320054,-0.3123755 -0.3380162,-0.2917083 -0.3546486,-0.2699976 -0.3699156,-0.2473374 -0.3837814,-0.2238219 -0.3962104,-0.199545 -0.4071667,-0.1746008 -0.4166149,-0.1490833 -0.424519,-0.1230867 -0.4308435,-0.0967049 -0.4355526,-0.0700319 -0.4386106,-0.0431619 -0.4399818,-0.0161889 -0.4396306,0.010793 -0.4375318,0.0376646 -0.4337198,0.0642825 -0.4282479,0.0905618 -0.4211693,0.1164194 -0.4125371,0.1417723 -0.4024044,0.1665376 -0.3908244,0.1906322 -0.3778502,0.213973 -0.363535,0.2364771 -0.3479318,0.2580615 -0.3310938,0.2786431 -0.3130743,0.2981389 -0.2939262,0.3164659 -0.2737027,0.3335411 -0.2524571,0.3492815 -0.2302557,0.3635998 -0.2072315,0.3764243 -0.1834871,0.3877439 -0.1591189,0.3975527 -0.1342232,0.4058444 -0.1088963,0.412613 -0.0832346,0.4178523 -0.0573344,0.4215562 -0.0312921,0.4237186 -0.0052039,0.4243334 0.0208338,0.4233945 0.0467247,0.4208957 0.0723725,0.4168309 0.0976808,0.4111941 0.1225533,0.4039791 0.1468912,0.3951811 0.1705565,0.3848444 0.1934649,0.3730463 0.2155564,0.3598597 0.2367707,0.3453574 0.2570478,0.3296124 0.2763274,0.3126974 0.2945495,0.2946852 0.3116538,0.2756488 0.3275803,0.2556609 0.3422687,0.2347944 0.3556591,0.2131221 0.3676911,0.190717 0.3783046,0.1676517 0.3874396,0.1439993 0.3950358,0.1198324 0.4010359,0.0952555 0.4054321,0.0704065 0.4082481,0.0453758 0.4095075,0.0202526 0.4092342,-0.0048737 0.4074518,-0.029914 0.404184,-0.0547788 0.3994548,-0.0793789 0.3932877,-0.103625 0.3857066,-0.1274279 0.3767353,-0.1506981 0.3663973,-0.1733465 0.3547166,-0.1952837 0.3417169,-0.2164205 0.3274219,-0.2366676 0.311859,-0.2559326 0.2951173,-0.2741038 0.2772918,-0.2911334 0.2584672,-0.3069901 0.2387281,-0.3216424 0.2181593,-0.3350591 0.1968456,-0.3472088 0.1748715,-0.3580603 0.1523218,-0.3675822 0.1292812,-0.3757433 0.1058345,-0.3825121 0.0820663,-0.3878573 0.0580614,-0.3917477 0.0339043,-0.394152 0.00968,-0.3950387 -0.014527,-0.3943766 -0.0386114,-0.3921427 -0.0624375,-0.3883687 -0.0859295,-0.3831052 -0.1090151,-0.3764027 -0.1316218,-0.3683118 -0.1536775,-0.3588829 -0.1751096,-0.3481665 -0.1958459,-0.3362131 -0.2158139,-0.3230732 -0.2349415,-0.3087971 -0.2531562,-0.2934355 -0.2703857,-0.2770388 -0.2865576,-0.2596574 -0.3015996,-0.2413419 -0.3154394,-0.2221428 -0.3280045,-0.2021105 -0.3392142,-0.1813383 -0.3490357,-0.1599459 -0.3574706,-0.1380193 -0.3645207,-0.1156443 -0.3701878,-0.0929069 -0.3744736,-0.0698932 -0.37738,-0.046689 -0.3789086,-0.0233803 -0.3790613,-0.0000532 -0.3778398,0.0232065 -0.3752459,0.0463129 -0.3712813,0.0691798 -0.3659478,0.0917214 -0.3592472,0.1138518 -0.3511812,0.1354849 -0.3417515,0.1565347 -0.3309797,0.1768987 -0.31895,0.1964717 -0.3057344,0.2152063 -0.2914038,0.2330573 -0.2760289,0.2499794 -0.2596805,0.2659273 -0.2424294,0.2808558 -0.2243464,0.2947196 -0.2055022,0.3074734 -0.1859676,0.319072 -0.1658134,0.3294701 -0.1451103,0.3386225 -0.1239292,0.3464838 -0.1023408,0.3530088 -0.0804158,0.3581523 -0.0582253,0.3618689 -0.0358855,0.3641266 -0.0135063,0.3649447 0.0088366,0.3643552 0.031068,0.3623897 0.0531122,0.3590803 0.0748939,0.3544586 0.0963375,0.3485565 0.1173676,0.3414059 0.1379087,0.3330385 0.1578853,0.3234863 0.177222,0.3127809 0.1958432,0.3009544 0.2136736,0.2880384 0.2306375,0.2740649 0.2466596,0.2590655 0.2616629,0.2430747 0.2755582,0.2261832 0.2883127,0.2084835 0.299911,0.1900538 0.3103373,0.1709724 0.319576,0.1513175 0.3276116,0.1311674 0.3344284,0.1106003 0.3400107,0.0896944 0.344343,0.0685281 0.3474097,0.0471796 0.349195,0.025727 0.3496835,0.0042488 0.3488594,-0.0171769 0.3467071,-0.0384718 0.3432111,-0.0595577 0.3383579,-0.0803517 0.3321784,-0.1007301 0.3247296,-0.1206215 0.3160665,-0.1399711 0.3062438,-0.1587237 0.2953165,-0.1768246 0.2833394,-0.1942185 0.2703673,-0.2108507 0.2564552,-0.2266661 0.241658,-0.2416098 0.2260304,-0.2556268 0.2096273,-0.268662 0.1925037,-0.2806607 0.1747143,-0.2915676 0.1563141,-0.301328 0.1373579,-0.3098868 0.1179051,-0.3171884 0.0980731,-0.3231903 0.0779514,-0.3279 0.057614,-0.3313328 0.0371349,-0.3335038 0.0165879,-0.3344281 -0.0039528,-0.334121 -0.0244132,-0.3325976 -0.0447195,-0.3298731 -0.0647976,-0.3259627 -0.0845736,-0.3208814 -0.1039733,-0.3146446 -0.122923,-0.3072673 -0.1413485,-0.2987648 -0.1591759,-0.2891521 -0.1763312,-0.2784446 -0.1927393,-0.2666585 -0.2083014,-0.2538595 -0.2229689,-0.2401279 -0.2367152,-0.2255322 -0.2495135,-0.2101405 -0.2613371,-0.1940213 -0.2721594,-0.1772429 -0.2819536,-0.1598735 -0.290693,-0.1419816 -0.2983509,-0.1236355 -0.3049007,-0.1049035 -0.3103155,-0.085854 -0.3145688,-0.0665552 -0.3176337,-0.0470756 -0.3194837,-0.0274834 -0.3200919,-0.0078469 -0.3194317,0.0117654 -0.3174924,0.0312519 -0.31431,0.0505116 -0.3099265,0.0694871 -0.304384,0.0881208 -0.2977244,0.1063553 -0.2899898,0.124133 -0.2812222,0.1413966 -0.2714636,0.1580885 -0.260756,0.1741512 -0.2491414,0.1895274 -0.2366619,0.2041595 -0.2233594,0.21799 -0.209276,0.2309615 -0.1944536,0.2430165 -0.1789343,0.2540976 -0.1627602,0.2641472 -0.1459858,0.2731049 -0.1287211,0.2809262 -0.1110409,0.2876127 -0.0930141,0.2931692 -0.0747095,0.2976008 -0.0561958,0.3009125 -0.0375419,0.3031092 -0.0188167,0.304196 -0.0000889,0.3041778 0.0185726,0.3030597 0.037099,0.3008465 0.0554214,0.2975433 0.0734712,0.2931551 0.0911793,0.2876869 0.1084771,0.2811436 0.1252957,0.2735302 0.1415662,0.2648519 0.1571925,0.2551495 0.1721118,0.2444945 0.1862931,0.2329461 0.1997059,0.2205638 0.2123193,0.2074068 0.2241026,0.1935344 0.2350252,0.179006 0.2450562,0.1638807 0.254165,0.148218 0.2623208,0.1320771 0.2694929,0.1155174 0.2756506,0.0985981 0.2807631,0.0813786 0.2847997,0.0639181 0.2877296,0.0462761 0.2895222,0.0285116 0.290148,0.0106906 0.2896089,-0.0070734 0.2879375,-0.0247123 0.2851676,-0.042171 0.2813332,-0.0593947 0.2764679,-0.0763281 0.2706057,-0.0929164 0.2637803,-0.1091046 0.2560256,-0.1248376 0.2473754,-0.1400604 0.2378635,-0.1547181 0.2275237,-0.1687556 0.2163899,-0.1821179 0.2044958,-0.1947501 0.1918753,-0.206597 0.1785622,-0.2176038 0.1645904,-0.2277153 0.1500076,-0.2368726 0.1349142,-0.2450292 0.1193772,-0.2521834 0.1034588,-0.2583364 0.0872214,-0.2634893 0.0707274,-0.2676435 0.054039,-0.2708001 0.0372186,-0.2729602 0.0203284,-0.2741251 0.0034307,-0.274296 -0.013412,-0.2734741 -0.0301375,-0.2716605 -0.0466835,-0.2688565 -0.0629877,-0.2650633 -0.0789877,-0.2602821 -0.0946212,-0.254514 -0.109826,-0.2477603 -0.1245274,-0.240034 -0.1386394,-0.2313984 -0.1521292,-0.2219081 -0.164968,-0.2116158 -0.1771268,-0.2005739 -0.1885767,-0.1888353 -0.1992887,-0.1764524 -0.2092338,-0.163478 -0.2183832,-0.1499647 -0.2267079,-0.135965 -0.2341788,-0.1215316 -0.2407672,-0.1067172 -0.2464439,-0.0915743 -0.2511802,-0.0761556 -0.2549469,-0.0605138 -0.2577153,-0.0447014 -0.2594563,-0.028771 -0.2601435,-0.0127868 -0.2597845,0.0031456 -0.2584095,0.0189697 -0.2560489,0.0346365 -0.2527333,0.050097 -0.2484932,0.0653021 -0.2433591,0.0802027 -0.2373615,0.0947497 -0.2305309,0.1088942 -0.2228979,0.1225869 -0.2144929,0.1357788 -0.2053464,0.148421 -0.195489,0.1604642 -0.1849511,0.1718595 -0.1737633,0.1825577 -0.1619561,0.1925099 -0.14956,0.2016668 -0.1366081,0.2099786 -0.1231862,0.2173922 -0.1093653,0.2238995 -0.0952009,0.2295037 -0.0807484,0.2342078 -0.0660631,0.2380149 -0.0512005,0.2409281 -0.0362159,0.2429505 -0.0211648,0.2440852 -0.0061024,0.2443353 0.0089157,0.2437039 0.0238343,0.242194 0.0385978,0.2398088 0.053151,0.2365513 0.0674385,0.2324247 0.0814047,0.2274321 0.0949945,0.2215764 0.1081523,0.2148609 0.1208065,0.2073074 0.1328881,0.1989803 0.1443739,0.1899285 0.1552416,0.1802003 0.1654688,0.169844 0.1750333,0.1589077 0.1839128,0.1474397 0.1920849,0.1354883 0.1995274,0.1231018 0.2062181,0.1103282 0.2121345,0.097216 0.2172544,0.0838134 0.2215555,0.0701685 0.2250156,0.0563297 0.2276122,0.0423451 0.2293232,0.0282631 0.2301261,0.0141319 0.2299991,0.0000006 0.2289413,-0.0140393 0.2269831,-0.0279224 0.2241557,-0.0416085 0.2204902,-0.0550576 0.216018,-0.0682296 0.2107702,-0.0810844 0.2047781,-0.093582 0.1980728,-0.1056823 0.1906856,-0.1173452 0.1826477,-0.1285306 0.1739903,-0.1391986 0.1647447,-0.149309 0.154942,-0.1588217 0.1446136,-0.1676966 0.1337905,-0.1758938 0.122504,-0.1833731 0.1107854,-0.1900945 0.0986691,-0.1960171 0.0862409,-0.2011038 0.0735634,-0.2053564 0.0606841,-0.2087846 0.0476505,-0.211398 0.0345101,-0.213206 0.0213102,-0.2142184 0.0080985,-0.2144446 -0.0050777,-0.2138944 -0.018171,-0.2125772 -0.0311338,-0.2105027 -0.0439186,-0.2076804 -0.0564781,-0.20412 -0.0687648,-0.199831 -0.0807312,-0.194823 -0.0923298,-0.1891056 -0.1035132,-0.1826884 -0.1142339,-0.175581 -0.1244432,-0.1677944 -0.1340722,-0.1593841 -0.1430928,-0.150407 -0.1514936,-0.1409077 -0.1592634,-0.1309309 -0.1663909,-0.1205212 -0.1728646,-0.109723 -0.1786733,-0.0985811 -0.1838057,-0.0871401 -0.1882503,-0.0754445 -0.191996,-0.063539 -0.1950314,-0.051468 -0.1973452,-0.0392764 -0.1989259,-0.0270085 -0.1997624,-0.0147092 -0.1998432,-0.0024228 -0.1991572,0.0098059 -0.1976928,0.0219323 -0.1954389,0.0339119 -0.1924012,0.0456746 -0.1886192,0.0571528 -0.1841267,0.068319 -0.1789576,0.0791458 -0.1731459,0.0896057 -0.1667252,0.0996712 -0.1597295,0.109315 -0.1521927,0.1185096 -0.1441486,0.1272275 -0.1356311,0.1354413 -0.1266741,0.1431237 -0.1173114,0.1502471 -0.1075768,0.156784 -0.0975043,0.1627072 -0.0871277,0.1679891 -0.0764808,0.1726023 -0.0655976,0.1765194 -0.0545119,0.1797129 -0.0432622,0.1821556 -0.0319338,0.1838368 -0.0205768,0.1847729 -0.0092277,0.1849827 0.0020768,0.1844848 0.0133003,0.1832983 0.0244062,0.1814417 0.0353577,0.178934 0.0461185,0.1757939 0.0566519,0.1720402 0.0669213,0.1676917 0.0768902,0.1627672 0.086522,0.1572855 0.0957801,0.1512653 0.1046279,0.1447255 0.1130288,0.1376849 0.1209464,0.1301622 0.128344,0.1221762 0.135185,0.1137458 0.1414297,0.1048991 0.1470409,0.0957112 0.152018,0.0862268 0.1563639,0.0764843 0.1600816,0.0665224 0.1631742,0.0563794 0.1656447,0.046094 0.167496,0.0357046 0.1687312,0.0252497 0.1693533,0.0147678 0.1693653,0.0042975 0.1687702,-0.0061228 0.167571,-0.0164545 0.1657708,-0.0266592 0.1633725,-0.0366983 0.1603792,-0.0465333 0.1567938,-0.0561258 0.1526194,-0.0654371 0.147859,-0.0744289 0.1425197,-0.0830587 0.1366521,-0.091264 0.1302974,-0.0990248 0.12349,-0.1063304 0.1162645,-0.1131702 0.1086554,-0.1195338 0.0924244,-0.1307894 0.0750729,-0.1400125 0.056877,-0.1471182 0.0381127,-0.1520217 0.0190561,-0.1546383 0.0095044,-0.1550624 -0.0000169,-0.154883 -0.0094733,-0.1540895 -0.0188302,-0.1526712 -0.0280273,-0.1506346 -0.037009,-0.1480127 -0.0542445,-0.1411198 -0.0703741,-0.1322059 -0.0852352,-0.1214843 -0.0986651,-0.1091682 -0.1105012,-0.0954709 -0.120581,-0.0806058 -0.1287417,-0.0647861 -0.1348208,-0.048225 -0.1386558,-0.0311367 -0.1401543,-0.0138797 -0.139421,0.0032299 -0.1365937,0.0199867 -0.1318104,0.0361854 -0.125209,0.0516207 -0.1169274,0.0660874 -0.1071037,0.07938 -0.0958757,0.0912934 -0.0833813,0.1016221 -0.0697586,0.1101609 -0.0552737,0.1167162 -0.0402578,0.1212715 -0.0249274,0.1238919 -0.0094991,0.1246427 0.0058107,0.1235893 0.0207855,0.1207968 0.0352087,0.1163305 0.0488639,0.1102558 0.0615344,0.1026378 0.0730039,0.0935418 0.0830397,0.0830846 0.0914705,0.0715724 0.0982924,0.0592218 0.1035112,0.0462374 0.1071324,0.0328235 0.1091616,0.0191847 0.1096045,0.0055254 0.1084666,-0.0079499 0.1057536,-0.0210367 0.101471,-0.0335306 0.095625,-0.0452267 0.0883559,-0.0558603 0.079895,-0.0653007 0.0704213,-0.073512 0.0601137,-0.0804582 0.0491514,-0.0861031 0.0377131,-0.0904107 0.025978,-0.0933451 0.0141249,-0.0948701 0.0023328,-0.0949497 -0.0092192,-0.0935479 -0.0203484,-0.0906318 -0.0307824,-0.086309 -0.0403914,-0.0807563 -0.0491162,-0.0741224 -0.0568978,-0.0665563 -0.0636771,-0.0582069 -0.0693952,-0.0492232 -0.073993,-0.0397539 -0.0774114,-0.029948 -0.0795914,-0.0199545 -0.0804739,-0.0099222 -0.08,0 -0.12,0 -0.12,0 -0.1201597,-0.0148083 -0.1183566,-0.0296408 -0.1146831,-0.0442879 -0.1092317,-0.05854 -0.1020949,-0.0721873 -0.093365,-0.0850201 -0.0831346,-0.0968289 -0.0714959,-0.1074038 -0.0585416,-0.1165353 -0.044364,-0.1240136 -0.0291132,-0.1296075 -0.0131308,-0.1331544 0.0033249,-0.1346745 0.0200051,-0.1341966 0.0366613,-0.1317493 0.0530446,-0.1273613 0.0689064,-0.1210612 0.0839979,-0.1128777 0.0980704,-0.1028396 0.1108753,-0.0909754 0.1167238,-0.0843682 0.1221342,-0.0773496 0.1315536,-0.0622424 0.1390565,-0.0459292 0.1445851,-0.0286751 0.1480819,-0.010745 0.1494892,0.0075959 0.1487493,0.0260827 0.1458045,0.0444504 0.1405972,0.0624339 0.1371271,0.0711988 0.1330698,0.0797682 0.1284199,0.0881045 0.1232012,0.0961338 0.1174467,0.1038241 0.1111874,0.1111558 0.0972768,0.1246647 0.0817152,0.1365035 0.0647485,0.1465152 0.0466225,0.1545426 0.0275833,0.1604287 0.017798,0.1625196 0.0078765,0.1640164 -0.0021503,0.1648993 -0.0122518,0.1651487 -0.0223972,0.1647449 -0.0325558,0.1636684 -0.0426667,0.1619042 -0.0526616,0.159465 -0.0625085,0.1563738 -0.0721759,0.1526533 -0.0816321,0.1483264 -0.0908457,0.1434159 -0.0997848,0.1379447 -0.108418,0.1319356 -0.1167137,0.1254115 -0.1246401,0.1183952 -0.1321657,0.1109094 -0.1392589,0.1029771 -0.145888,0.0946212 -0.1520215,0.0858643 -0.1576277,0.0767295 -0.162675,0.0672394 -0.1671318,0.057417 -0.1709664,0.0472851 -0.1741474,0.0368666 -0.1766373,0.0262068 -0.1784161,0.0153817 -0.1794929,0.0044325 -0.1798769,-0.0066002 -0.1795777,-0.0176762 -0.1786047,-0.0287548 -0.1769671,-0.0397958 -0.1746745,-0.0507588 -0.1717361,-0.0616032 -0.1681615,-0.0722888 -0.1639601,-0.0827749 -0.1591411,-0.0930214 -0.1537141,-0.1029877 -0.1476884,-0.1126334 -0.1410734,-0.1219181 -0.1338785,-0.1308014 -0.1261132,-0.1392428 -0.1177868,-0.147202 -0.1089087,-0.1546385 -0.0995171,-0.1614919 -0.0896729,-0.1677229 -0.0794193,-0.1733233 -0.0687997,-0.1782849 -0.057857,-0.1825996 -0.0466346,-0.1862591 -0.0351756,-0.1892553 -0.0235233,-0.19158 -0.0117208,-0.193225 0.0001888,-0.1941822 0.0121621,-0.1944434 0.024156,-0.1940005 0.0361274,-0.1928451 0.0480329,-0.1909693 0.0598295,-0.1883647 0.0714739,-0.1850233 0.082923,-0.1809368 0.0941335,-0.176097 0.1050561,-0.1704987 0.1156054,-0.1641709 0.1257434,-0.1571534 0.1354432,-0.1494842 0.144678,-0.1412009 0.1534207,-0.1323414 0.1616443,-0.1229433 0.1693221,-0.1130445 0.176427,-0.1026828 0.1829321,-0.0918958 0.1888105,-0.0807215 0.1940352,-0.0691975 0.1985793,-0.0573616 0.2024158,-0.0452516 0.2055178,-0.0329052 0.2078584,-0.0203603 0.2094107,-0.0076546 0.2101476,0.0051742 0.2100423,0.0180876 0.2090748,0.0310034 0.20726,0.0438528 0.2046215,0.0565932 0.2011828,0.0691818 0.1969674,0.0815758 0.1919989,0.0937324 0.1863008,0.105609 0.1798966,0.1171628 0.1728099,0.128351 0.1650642,0.1391309 0.1566829,0.1494597 0.1476898,0.1592947 0.1381082,0.1685931 0.1279617,0.1773123 0.1172738,0.1854093 0.1060681,0.1928416 0.0943681,0.1995663 0.0821974,0.2055406 0.0696185,0.2107093 0.0567055,0.2150508 0.0435094,0.2185675 0.0300815,0.2212612 0.0164728,0.2231341 0.0027345,0.2241882 -0.0110823,0.2244258 -0.0249264,0.2238487 -0.0387468,0.2224591 -0.0524923,0.2202592 -0.0661117,0.2172508 -0.0795539,0.2134362 -0.0927679,0.2088175 -0.1057024,0.2033966 -0.1183063,0.1971757 -0.1305285,0.1901568 -0.1423179,0.1823421 -0.1536221,0.1737343 -0.164357,0.1643733 -0.1744776,0.1543152 -0.1839613,0.1436087 -0.1927855,0.1323023 -0.2009277,0.1204445 -0.2083654,0.1080839 -0.2150758,0.095269 -0.2210366,0.0820482 -0.226225,0.0684703 -0.2306185,0.0545836 -0.2341945,0.0404367 -0.2369305,0.0260782 -0.2388038,0.0115565 -0.239792,-0.0030797 -0.2398724,-0.017782 -0.2390224,-0.0325018 -0.2372195,-0.0471905 -0.2344433,-0.061789 -0.2307041,-0.0761961 -0.2260352,-0.0903596 -0.2204702,-0.104235 -0.2140428,-0.1177777 -0.2067867,-0.1309432 -0.1987355,-0.1436868 -0.1899229,-0.155964 -0.1803825,-0.1677302 -0.170148,-0.1789409 -0.1592531,-0.1895515 -0.1477314,-0.1995173 -0.1356166,-0.2087939 -0.1229423,-0.2173367 -0.1097423,-0.2251011 -0.0960501,-0.2320424 -0.0818994,-0.2381163 -0.0673241,-0.2432779 -0.0524015,-0.2474758 -0.0372142,-0.2506986 -0.0218196,-0.2529548 -0.0062753,-0.2542528 0.0093611,-0.254601 0.0250321,-0.2540081 0.0406802,-0.2524825 0.0562478,-0.2500326 0.0716774,-0.246667 0.0869115,-0.2423941 0.1018925,-0.2372225 0.1165628,-0.2311606 0.130865,-0.2242168 0.1447415,-0.2163998 0.1581348,-0.207718 0.1709873,-0.1981798 0.1832415,-0.1877937 0.1948237,-0.1765864 0.2056623,-0.1646295 0.2157343,-0.1519804 0.2250182,-0.1386955 0.2334926,-0.1248313 0.2411357,-0.1104442 0.2479259,-0.0955907 0.2538419,-0.0803272 0.2588618,-0.0647103 0.2629642,-0.0487963 0.2661276,-0.0326418 0.2683302,-0.0163031 0.2695505,0.0001632 0.2697671,0.0167006 0.2689581,0.0332528 0.2671022,0.0497632 0.2641778,0.0661754 0.2601684,0.0824158 0.2550977,0.0983796 0.2490054,0.1140143 0.241931,0.1292714 0.2339142,0.1441022 0.2249947,0.1584582 0.2152119,0.1722908 0.2046056,0.1855512 0.1932154,0.198191 0.1810808,0.2101615 0.1682415,0.2214141 0.154737,0.2319002 0.1406072,0.2415712 0.1258914,0.2503785 0.1106294,0.2582734 0.0948607,0.2652074 0.0786251,0.2711318 0.0619822,0.2759938 0.0450367,0.2797628 0.027855,0.2824474 0.0105014,0.2840573 -0.00696,0.2846025 -0.0244648,0.2840928 -0.041949,0.282538 -0.0593484,0.2799479 -0.0765986,0.2763324 -0.0936355,0.2717012 -0.110395,0.2660643 -0.1268127,0.2594315 -0.1428246,0.2518126 -0.1583663,0.2432173 -0.1733738,0.2336557 -0.1877827,0.2231374 -0.201529,0.2116723 -0.2145265,0.1992968 -0.2267073,0.1860875 -0.2380456,0.1721067 -0.2485159,0.1574164 -0.2580928,0.1420789 -0.2667507,0.1261563 -0.2744642,0.1097108 -0.2812077,0.0928045 -0.2869557,0.0754995 -0.2916829,0.0578581 -0.2953636,0.0399423 -0.2979723,0.0218143 -0.2994836,0.0035363 -0.299872,-0.0148296 -0.299112,-0.0332212 -0.297178,-0.0515764 -0.2940451,-0.0698301 -0.2897145,-0.0878685 -0.2842245,-0.1056152 -0.2776161,-0.1230142 -0.2699303,-0.1400094 -0.2612079,-0.156545 -0.2514901,-0.1725648 -0.2408176,-0.1880128 -0.2292315,-0.2028331 -0.2167727,-0.2169696 -0.2034822,-0.2303664 -0.1894009,-0.2429673 -0.1745697,-0.2547164 -0.1590297,-0.2655577 -0.1428217,-0.2754352 -0.1259868,-0.2842928 -0.1085658,-0.2920746 -0.090622,-0.2987187 -0.0722643,-0.3041875 -0.053566,-0.3084848 -0.0345985,-0.3116161 -0.0154332,-0.3135863 0.0038585,-0.3144008 0.0232053,-0.3140647 0.0425358,-0.3125832 0.0617785,-0.3099615 0.0808622,-0.3062048 0.0997153,-0.3013183 0.1182666,-0.2953072 0.1364446,-0.2881766 0.1541779,-0.2799318 0.1713951,-0.2705779 0.188025,-0.2601202 0.2039915,-0.2485672 0.2191889,-0.2359779 0.2335679,-0.2224224 0.2470934,-0.2079658 0.2597305,-0.1926729 0.2714441,-0.1766086 0.2821994,-0.159838 0.2919612,-0.1424258 0.3006947,-0.1244371 0.3083649,-0.1059367 0.3149366,-0.0869897 0.3203751,-0.0676608 0.3246453,-0.0480151 0.3277122,-0.0281175 0.3295408,-0.0080328 0.3300961,0.012174 0.3293433,0.0324373 0.3272623,0.0526443 0.3238807,0.0726983 0.3192349,0.0925328 0.3133615,0.1120813 0.306297,0.1312772 0.2980779,0.1500539 0.2887409,0.1683449 0.2783223,0.1860838 0.2668587,0.2032038 0.2543866,0.2196385 0.2409427,0.2353214 0.2265633,0.2501859 0.211285,0.2641654 0.1951444,0.2771934 0.1781779,0.2892034 0.1604222,0.3001288 0.1419517,0.3098907 0.1228703,0.318449 0.1032558,0.3257975 0.083186,0.33193 0.0627388,0.3368401 0.0419919,0.3405218 0.0210232,0.3429687 -0.0000897,0.3441745 -0.0212687,0.3441331 -0.0424362,0.3428383 -0.0635143,0.3402837 -0.0844253,0.3364632 -0.1050913,0.3313705 -0.1254346,0.3249993 -0.1453773,0.3173435 -0.1648415,0.3083968 -0.1837194,0.2981768 -0.2019164,0.2867494 -0.2193829,0.2741773 -0.2360691,0.2605234 -0.2519251,0.2458507 -0.2669014,0.230222 -0.2809482,0.2137003 -0.2940157,0.1963484 -0.3060542,0.1782292 -0.3170139,0.1594057 -0.3268452,0.1399406 -0.3354982,0.119897 -0.3429233,0.0993376 -0.3490707,0.0783254 -0.3538906,0.0569233 -0.3573333,0.0351943 -0.3593543,0.0132476 -0.3599602,-0.0088058 -0.3591757,-0.0308874 -0.3570258,-0.0529187 -0.3535351,-0.0748212 -0.3487284,-0.0965165 -0.3426304,-0.1179261 -0.335266,-0.1389714 -0.32666,-0.1595741 -0.316837,-0.1796556 -0.3058219,-0.1991374 -0.2936394,-0.2179411 -0.2803142,-0.2359881 -0.2658713,-0.2532001 -0.2503353,-0.2694984 -0.2337329,-0.2848029 -0.2161451,-0.299012 -0.1976639,-0.3120811 -0.17837,-0.3239856 -0.1583443,-0.3347007 -0.1376673,-0.3442017 -0.1164198,-0.352464 -0.0946825,-0.359463 -0.0725361,-0.3651738 -0.0500613,-0.3695718 -0.0273389,-0.3726324 -0.0044495,-0.3743308 0.0185262,-0.3746424 0.0415074,-0.3735424 0.0644134,-0.3710062 0.0871635,-0.3670092 0.109665,-0.3615307 0.1317843,-0.3545976 0.1534453,-0.3462633 0.1745801,-0.3365813 0.1951206,-0.3256048 0.2149987,-0.3133873 0.2341463,-0.2999822 0.2524955,-0.2854428 0.2699781,-0.2698225 0.2865261,-0.2531747 0.3020715,-0.2355528 0.3165461,-0.21701 0.3298821,-0.1975999 0.3420111,-0.1773758 0.3528654,-0.1563911 0.3623767,-0.1346991 0.370471,-0.112392 0.3771199,-0.0895908 0.3823277,-0.0663841 0.3860988,-0.0428603 0.3884377,-0.0191078 0.3893488,0.0047848 0.3888366,0.0287291 0.3869055,0.0526368 0.38356,0.0764192 0.3788045,0.099988 0.3726434,0.1232547 0.3650812,0.1461308 0.3561223,0.1685279 0.3457712,0.1903576 0.3340322,0.2115313 0.3209152,0.2319538 0.306487,0.2515011 0.2908277,0.2701128 0.2740136,0.2877399 0.2561211,0.3043334 0.2372262,0.3198443 0.2174054,0.3342238 0.1967348,0.3474228 0.1752908,0.3593924 0.1531497,0.3700836 0.1303876,0.3794475 0.1070809,0.3874351 0.0833059,0.3939975 0.0591388,0.3990857 0.0346559,0.4026507 0.0099335,0.4046436 -0.0149057,0.4050255 -0.03974,0.4038136 -0.0644831,0.4010416 -0.0890486,0.3967434 -0.1133504,0.3909528 -0.1373021,0.3837037 -0.1608174,0.3750299 -0.18381,0.3649652 -0.2061937,0.3535435 -0.2278822,0.3407986 -0.2487891,0.3267642 -0.2688282,0.3114744 -0.2879133,0.2949628 -0.3059579,0.2772634 -0.3228758,0.2584099 -0.3385698,0.2384558 -0.3529552,0.2175153 -0.3660056,0.1956819 -0.3776969,0.1730473 -0.3880047,0.149703 -0.396905,0.1257405 -0.4043734,0.1012516 -0.4103859,0.0763278 -0.4149182,0.0510606 -0.4179462,0.0255417 -0.4194455,-0.0001374 -0.4193921,-0.0258851 -0.4177618,-0.0516097 -0.4145302,-0.0772198 -0.4096733,-0.1026238 -0.4031695,-0.1277194 -0.3950422,-0.152357 -0.3853527,-0.1764507 -0.3741628,-0.1999265 -0.3615347,-0.2227102 -0.3475303,-0.2447279 -0.3322116,-0.2659054 -0.3156407,-0.2861688 -0.2978796,-0.3054438 -0.2789903,-0.3236566 -0.2590349,-0.340733 -0.2380753,-0.3565989 -0.2161736,-0.3711803 -0.1933918,-0.3844031 -0.1697919,-0.3961932 -0.1454359,-0.4064767 -0.1204048,-0.4151764 -0.0948455,-0.4222443 -0.0688616,-0.427686 -0.0425518,-0.4315099 -0.0160145,-0.4337245 0.0106519,-0.4343383 0.037349,-0.4333596 0.0639783,-0.4307969 0.0904413,-0.4266587 0.1166397,-0.4209534 0.1424749,-0.4136895 0.1678486,-0.4048753 0.1926622,-0.3945193 0.2168174,-0.3826301 0.2402156,-0.3692159 0.2627559,-0.3542872 0.2843025,-0.33791 0.3047801,-0.3201773 0.3241362,-0.3011754 0.3423185,-0.2809904 0.3592744,-0.2597086 0.3749515,-0.2374161 0.3892974,-0.214199 0.4022597,-0.1901436 0.4137858,-0.165336 0.4238235,-0.1398624 0.4323202,-0.113809 0.4392235,-0.0872619 0.4444809,-0.0603074 0.4480401,-0.0330315 0.4498485,-0.0055209 0.4498677,0.0220865 0.4481203,0.0496597 0.4446451,0.0771034 0.4394806,0.1043222 0.4326651,0.1312206 0.4242374,0.1577032 0.4142358,0.1836746 0.402699,0.2090395 0.3896654,0.2337022 0.3751736,0.2575675 0.3592621,0.2805399 0.3419694,0.3025241 0.323334,0.3234244 0.3033945,0.3431457 0.2821894,0.3615923 0.2597984,0.3786509 0.2363449,0.3942517 0.21193,0.4083675 0.1866553,0.420971 0.160622,0.4320352 0.1339315,0.4415328 0.106685,0.4494365 0.078984,0.4557192 0.0509297,0.4603536 0.0226234,0.4633127 -0.0058333,0.464569 -0.0343394,0.4640955 -0.0627934,0.4618649 -0.0910939,0.4578501 -0.1191397,0.4520237 -0.1467907,0.4443803 -0.1739143,0.4349766 -0.2004257,0.4238778 -0.2262403,0.4111493 -0.2512734,0.3968564 -0.2754404,0.3810644 -0.2986566,0.3638386 -0.3208373,0.3452443 -0.3418979,0.3253469 -0.3617537,0.3042115 -0.38032,0.2819037 -0.3975122,0.2584886 -0.4132456,0.2340315 -0.4274356,0.2085978 -0.4399974,0.182253 -0.4508405,0.1551138 -0.459935,0.1273179 -0.4672809,0.0989742 -0.4728783,0.0701915 -0.4767271,0.0410788 -0.4788275,0.0117451 -0.4791795,-0.0177008 -0.4777831,-0.04715 -0.4746384,-0.0764935 -0.4697454,-0.1056224 -0.4631041,-0.1344278 -0.4547147,-0.1628007 -0.4445771,-0.1906322 -0.4326914,-0.2178135 -0.4190586,-0.2442337 -0.4037293,-0.2697425 -0.3867952,-0.294244 -0.3683439,-0.31767 -0.3484628,-0.3399524 -0.3272396,-0.3610231 -0.3047617,-0.380814 -0.2811167,-0.399257 -0.256392,-0.416284 -0.2306753,-0.4318269 -0.2040539,-0.4458174 -0.1766156,-0.4581877 -0.1484477,-0.4688694 -0.1196378,-0.4777946 -0.0902735,-0.4848951 -0.0604515,-0.4901021 -0.0303341,-0.493377 -0.0000426,-0.4947415 0.0303132,-0.4942226 0.0606239,-0.4918474 0.0907799,-0.4876433 0.1206716,-0.4816372 0.1501894,-0.4738564 0.1792238,-0.4643279 0.2076652,-0.453079 0.235404,-0.4401368 0.2623308,-0.4255284 0.2883358,-0.409281 0.3133097,-0.3914217 0.3371427,-0.3719777 0.3597092,-0.3509988 0.3808964,-0.328603 0.4006548,-0.3048961 0.4189365,-0.2799827 0.4356939,-0.253967 0.4508794,-0.2269536 0.4644451,-0.199047 0.4763433,-0.1703516 0.4865265,-0.1409719 0.4949467,-0.1110123 0.5015564,-0.0805772 0.5063077,-0.0497713 0.5091531,-0.0186988 0.5100447,0.0125356 0.508935,0.0438264 0.5058026,0.0750121 0.5006904,0.1059582 0.4936509,0.1365602 0.4847366,0.166714 0.4740001,0.196315 0.4614938,0.2252591 0.4472703,0.2534419 0.4313822,0.280759 0.4138819,0.3071063 0.3948219,0.3323793 0.3742548,0.3564737 0.3522331,0.3792852 0.3288094,0.4007095 0.304036,0.4206423 0.2779825,0.4389712 0.2507898,0.4555989 0.222578,0.4704958 0.1934632,0.4836368 0.1635614,0.4949966 0.1329885,0.50455 0.1018608,0.5122718 0.0702941,0.5181368 0.0384045,0.5221197 0.006308,0.5241955 -0.0258793,0.5243387 -0.0580414,0.5225243 -0.0900623,0.5187271 -0.1218259,0.5129217 -0.1532148,0.5050834 -0.1840628,0.4952258 -0.2142439,0.4834207 -0.2436637,0.4697434 -0.2722277,0.4542689 -0.2998416,0.4370725 -0.3264108,0.4182292 -0.3518411,0.3978143 -0.3760379,0.3759027 -0.3989069,0.3525698 -0.4203535,0.3278905 -0.4402835,0.3019401 -0.4586023,0.2747938 -0.4752155,0.2465265 -0.4900287,0.2172135 -0.5029424,0.186958 -0.5138995,0.1559214 -0.5228971,0.1242281 -0.529933,0.0920007 -0.5350052,0.0593618 -0.5381117,0.0264338 -0.5392503,-0.0066605 -0.5384192,-0.0397986 -0.5356161,-0.072858 -0.530839,-0.105716 -0.524086,-0.13825 -0.5153548,-0.1703375 -0.5046436,-0.2018559 -0.4919503,-0.2326827 -0.4772779,-0.2626872 -0.4606956,-0.2917049 -0.4423003,-0.3196414 -0.4221867,-0.3464155 -0.400449,-0.3719463 -0.3771817,-0.3961524 -0.3524794,-0.4189529 -0.3264365,-0.4402664 -0.2991474,-0.4600121 -0.2707066,-0.4781086 -0.2412085,-0.4944749 -0.2107476,-0.5090298 -0.1794184,-0.5216922 -0.1473152,-0.532381 -0.1145344,-0.5410147 -0.0812349,-0.5475237 -0.0475666,-0.5519114 -0.0136543,-0.5541986 0.0203774,-0.5544058 0.0544037,-0.5525539 0.0882999,-0.5486633 0.1219413,-0.5427549 0.1552031,-0.5348493 0.1879607,-0.5249672 0.2200893,-0.5131292 0.2514642,-0.4993561 0.2819607,-0.4836684 0.311454,-0.466087 0.3398194,-0.4466324 0.3669048,-0.4253644 0.3925967,-0.4024028 0.4168296,-0.377858 0.4395379,-0.3518402 0.4606561,-0.3244598 0.4801185,-0.295827 0.4978596,-0.2660522 0.5138138,-0.2352456 0.5279155,-0.2035175 0.5400991,-0.1709784 0.5502991,-0.1377384 0.5584498,-0.1039078 0.5644858,-0.069597 0.5683413,-0.0349163 0.5699582,-0.0000101 0.569345,0.0349462 0.5665438,0.0698285 0.5615968,0.1045136 0.5545463,0.1388783 0.5454343,0.1727994 0.5343031,0.2061538 0.5211949,0.2388183 0.5061518,0.2706695 0.4892162,0.3015845 0.4704301,0.3314399 0.4498358,0.3601127 0.4274754,0.3874795 0.4033912,0.4134172 0.3776502,0.4377884 0.3503918,0.4604774 0.3217403,0.4814337 0.2918184,0.5006087 0.2607488,0.5179536 0.2286543,0.5334195 0.1956578,0.5469578 0.161882,0.5585197 0.1274496,0.5680565 0.0924835,0.5755193 0.0571064,0.5808595 0.0214411,0.5840283 -0.0143896,0.5849769 -0.050263,0.5836566 -0.0860297,0.5800259 -0.1215063,0.5741113 -0.1565721,0.5659756 -0.191109,0.555682 -0.2249989,0.5432936 -0.2581238,0.5288737 -0.2903658,0.5124855 -0.3216067,0.4941921 -0.3517285,0.4740567 -0.3806133,0.4521425 -0.4081429,0.4285127 -0.4341993,0.4032305 -0.4586645,0.376359 -0.4814205,0.3479615 -0.5023448,0.3181105 -0.5213196,0.2869593 -0.5383063,0.2546504 -0.5532768,0.2213165 -0.566203,0.1870907 -0.5770568,0.1521057 -0.5858101,0.1164945 -0.5924347,0.0803901 -0.5969026,0.0439253 -0.5991857,0.007233 -0.5992558,-0.0295539 -0.5970848,-0.0663024 -0.5926446,-0.1028796 -0.5859072,-0.1391527 -0.576847,-0.1749819 -0.565497,-0.2101766 -0.5519404,-0.2446099 -0.5362607,-0.2781721 -0.5185416,-0.3107541 -0.4988669,-0.3422463 -0.4773203,-0.3725394 -0.4539854,-0.401524 -0.428946,-0.4290907 -0.4022856,-0.45513 -0.3740881,-0.4795327 -0.3444371,-0.5021893 -0.3134163,-0.5229904 -0.2811093,-0.5418266 -0.2644997,-0.5504737 -0.2476071,-0.558586 -0.2130775,-0.5731688 -0.1776724,-0.5855548 -0.1415311,-0.5957356 -0.1047931,-0.6037026 -0.0675977,-0.6094473 -0.0300843,-0.6129614 0.0076078,-0.6142362 0.0453393,-0.6132634 0.0829707,-0.6100344 0.1203627,-0.6045407 0.157376,-0.5967739 0.1938712,-0.5867255 0.211881,-0.580843 0.2297089,-0.574387 0.2473377,-0.5673563 0.2647405,-0.5597556 0.2818922,-0.5515992 0.2987803,-0.5428998 0.3317163,-0.523922 0.3634492,-0.5029229 0.3938794,-0.4800031 0.4229077,-0.4552634 0.4504345,-0.4288045 0.4763606,-0.400727 0.5005864,-0.3711316 0.5230127,-0.340119 0.54354,-0.3077899 0.5620689,-0.2742449 0.5784999,-0.2395848 0.5858977,-0.221868 0.5927338,-0.2039102 0.5989955,-0.1857247 0.6046689,-0.1673408 0.6097522,-0.148782 0.6142465,-0.130066 0.6214731,-0.0922344 0.6263588,-0.053989 0.6289135,-0.0154727 0.6291472,0.0231714 0.6270699,0.0618003 0.6226914,0.1002711 0.6160218,0.1384407 0.6070709,0.1761662 0.5958489,0.2133044 0.5823655,0.2497125 0.574779,0.2675981 0.5666309,0.2852475 0.5579224,0.3026429 0.5486548,0.3197663 0.5388326,0.3365955 0.528473,0.353102 0.5175908,0.3692739 0.5062004,0.3850999 0.4943161,0.400569 0.4819524,0.4156702 0.455844,0.4447243 0.4279902,0.4721737 0.3985061,0.4979295 0.3675065,0.5219032 0.3351066,0.5440062 0.3014213,0.5641498 0.2665655,0.5822453 0.2306544,0.5982041 0.212339,0.6053546 0.1938028,0.6119376 0.1750603,0.6179422 0.1561258,0.6233572 0.1370137,0.6281715 0.1177391,0.6323739 0.0983326,0.635954 0.0788188,0.6389122 0.0592156,0.6412519 0.039541,0.6429766 0.0198133,0.6440896 0.0000504,0.6445942 -0.0197296,0.6444938 -0.0395087,0.6437918 -0.0789915,0.6405964 -0.1182536,0.6350348 -0.1571504,0.6271341 -0.1955374,0.616921 -0.23327,0.6044227 -0.2518457,0.5973249 -0.2702036,0.5896658 -0.2883257,0.5814489 -0.3061938,0.5726775 -0.3237899,0.5633549 -0.3410959,0.5534846 -0.3580938,0.5430698 -0.3747654,0.5321139 -0.3910928,0.5206204 -0.4070509,0.5085994 -0.4226168,0.4960716 -0.4377809,0.4830529 -0.4525334,0.4695592 -0.4668646,0.4556063 -0.4807647,0.4412102 -0.494224,0.4263866 -0.5072329,0.4111515 -0.5197816,0.3955207 -0.5318604,0.3795101 -0.5434595,0.3631356 -0.5651801,0.3293583 -0.5848655,0.2943156 -0.5939208,0.2763595 -0.6024381,0.2581347 -0.6104078,0.239657 -0.6178201,0.2209423 -0.6246653,0.2020066 -0.6309337,0.1828656 -0.6366157,0.1635353 -0.6417014,0.1440314 -0.6461811,0.12437 -0.6500452,0.1045668 -0.6532839,0.0846377 -0.6558875,0.0645987 -0.6578461,0.0444711 -0.6591567,0.0242889 -0.6598244,0.0040713 -0.6598545,-0.0161639 -0.6592525,-0.0363983 -0.6580236,-0.0566142 -0.6561733,-0.0767933 -0.6537069,-0.0969176 -0.6506297,-0.1169692 -0.6469473,-0.1369298 -0.6426648,-0.1567816 -0.6377877,-0.1765064 -0.6323213,-0.1960861 -0.6262711,-0.2155028 -0.6196423,-0.2347384 -0.6124404,-0.2537748 -0.6046706,-0.272594 -0.5963385,-0.2911779 -0.5874492,-0.3095085 -0.5780083,-0.3275677 -0.5680211,-0.3453375 -0.5574928,-0.3627999 -0.546429,-0.3799367 -0.534835,-0.3967299 -0.522716,-0.4131615 -0.5100776,-0.4292135 -0.496925,-0.4448677 -0.4832644,-0.4601054 -0.469116,-0.4748991 -0.4545003,-0.4892353 -0.4394343,-0.503106 -0.4239355,-0.5165029 -0.4080209,-0.5294179 -0.3917078,-0.5418428 -0.3750134,-0.5537693 -0.357955,-0.5651894 -0.3405497,-0.5760948 -0.3228148,-0.5864774 -0.3047675,-0.596329 -0.2864249,-0.6056414 -0.2678044,-0.6144064 -0.2489232,-0.6226158 -0.2297984,-0.6302615 -0.2104473,-0.6373353 -0.1908871,-0.643829 -0.1711349,-0.6497344 -0.1512082,-0.6550434 -0.131124,-0.6597478 -0.1108995,-0.6638393 -0.090552,-0.6673098 -0.0700988,-0.6701512 -0.049557,-0.6723552 -0.0289438,-0.6739137 -0.0082764,-0.6748184 0.0124278,-0.6750613 0.033138,-0.6746368 0.0538264,-0.6735497 0.0744751,-0.6718075 0.0950662,-0.6694174 0.1155819,-0.6663867 0.1360043,-0.6627229 0.1563155,-0.6584331 0.1764979,-0.6535248 0.1965334,-0.6480053 0.2164043,-0.6418819 0.2360926,-0.6351618 0.2555807,-0.6278526 0.2748505,-0.6199614 0.2938843,-0.6114956 0.3126642,-0.6024626 0.3311724,-0.5928696 0.349391,-0.5827241 0.3673022,-0.5720332 0.3848881,-0.5608044 0.402131,-0.549045 0.4190128,-0.5367622 0.4355159,-0.5239635 0.4516223,-0.5106562 0.4673142,-0.4968475 0.4825738,-0.4825449 0.4973832,-0.4677555 0.5117245,-0.4524869 0.5255734,-0.4367568 0.5389133,-0.4205899 0.5517373,-0.4040046 0.5640388,-0.3870191 0.575811,-0.3696519 0.5870472,-0.3519212 0.5977406,-0.3338453 0.6078845,-0.3154426 0.6174721,-0.2967313 0.6264967,-0.2777299 0.6349516,-0.2584565 0.6428299,-0.2389296 0.6501251,-0.2191674 0.6568302,-0.1991883 0.6629386,-0.1790105 0.6684436,-0.1586524 0.6733383,-0.1381324 0.6776161,-0.1174687 0.6812701,-0.0966796 0.6842938,-0.0757835 0.6866802,-0.0547986 0.6884227,-0.0337434 0.6895145,-0.0126361 0.6899489,0.008505 0.6897191,0.0296615 0.6888184,0.0508152 0.6872401,0.0719476 0.6849811,0.0930264 0.6820488,0.1140245 0.6784522,0.1349241 0.6742003,0.1557078 0.6693022,0.176358 0.6637669,0.1968572 0.6576034,0.2171878 0.6508209,0.2373322 0.6434282,0.2572729 0.6354345,0.2769924 0.6268488,0.2964731 0.6176801,0.3156975 0.6079375,0.3346479 0.59763,0.3533069 0.5867666,0.3716569 0.5753564,0.3896804 0.5634084,0.4073598 0.5509317,0.4246775 0.5379352,0.441616 0.524428,0.4581577 0.5104192,0.4742852 0.4959178,0.4899808 0.4809329,0.505227 0.4654733,0.5200062 0.4495483,0.534301 0.4331668,0.5480937 0.416338,0.5613667 0.3990829,0.5740967 0.3814278,0.5862697 0.3633919,0.5978804 0.3449946,0.6089235 0.326255,0.6193938 0.3071924,0.6292858 0.287826,0.6385944 0.2681752,0.6473142 0.2482591,0.6554399 0.2280971,0.6629663 0.2077083,0.6698879 0.187112,0.6761995 0.1663276,0.6818958 0.1453741,0.6869715 0.1242709,0.6914213 0.1030373,0.6952398 0.0816924,0.6984219 0.0602556,0.7009621 0.0387461,0.7028552 0.0171831,0.7040959 -0.0044141,0.7046788 -0.0260262,0.7045987 -0.047634,0.7038503 -0.0692182,0.7024282 -0.0907596,0.7003272 -0.112239,0.6975419 -0.1336363,0.6940672 -0.1549167,0.6899046 -0.176056,0.6850644 -0.1970371,0.6795572 -0.2178428,0.6733937 -0.238456,0.6665845 -0.2588594,0.6591402 -0.279036,0.6510715 -0.2989684,0.6423889 -0.3186397,0.6331031 -0.3380326,0.6232248 -0.3571299,0.6127646 -0.3759146,0.6017331 -0.3943693,0.5901409 -0.412477,0.5779987 -0.4302204,0.5653171 -0.4475825,0.5521068 -0.464546,0.5383783 -0.4810938,0.5241423 -0.4972088,0.5094095 -0.5128736,0.4941904 -0.5280713,0.4784958 -0.5427846,0.4623361 -0.5569963,0.4457222 -0.5706893,0.4286645 -0.5838464,0.4111738 -0.5964504,0.3932606 -0.6084849,0.3749376 -0.619941,0.3562369 -0.6308129,0.3371816 -0.6410942,0.3177913 -0.6507782,0.2980854 -0.6598584,0.2780836 -0.6683284,0.2578053 -0.6761817,0.23727 -0.6834117,0.2164973 -0.6900119,0.1955065 -0.6959759,0.1743173 -0.701297,0.1529492 -0.7059689,0.1314216 -0.7099849,0.109754 -0.7133386,0.0879661 -0.7160235,0.0660772 -0.718033,0.0441068 -0.7193607,0.0220746 -0.72,0 -0.68,0z" transform="matrix(1,0,0,-1,0.72,0.7046788)" stroke="rgb(100,100,100)" stroke-width="0.0010cm" stroke-linecap="round" stroke-linejoin="round" fill="none" shaper:cutDepth="0" /></svg>