0
SECTION
2
HEADER
9
$INSUNITS
70
4
9
$ACADVER
1
AC1014
9
$HANDSEED
5
FFFF
0
ENDSEC
0
SECTION
2
TABLES
0
TABLE
2
VPORT
5
8
100
AcDbSymbolTable
0
ENDTAB
0
TABLE
2
LTYPE
5
5
100
AcDbSymbolTable
0
LTYPE
5
14
100
AcDbSymbolTableRecord
100
AcDbLinetypeTableRecord
2
BYBLOCK
70
0
0
LTYPE
5
15
100
AcDbSymbolTableRecord
100
AcDbLinetypeTableRecord
2
BYLAYER
70
0
0
ENDTAB
0
TABLE
2
LAYER
5
2
100
AcDbSymbolTable
70
2
0
LAYER
5
50
100
AcDbSymbolTableRecord
100
AcDbLayerTableRecord
2
0
70
0
6
CONTINUOUS
0
ENDTAB
0
TABLE
2
STYLE
5
3
100
AcDbSymbolTable
70
1
0
STYLE
5
11
100
AcDbSymbolTableRecord
100
AcDbTextStyleTableRecord
2
STANDARD
70
0
0
ENDTAB
0
TABLE
2
VIEW
5
6
100
AcDbSymbolTable
70
0
0
ENDTAB
0
TABLE
2
UCS
5
7
100
AcDbSymbolTable
70
0
0
ENDTAB
0
TABLE
2
APPID
5
9
100
AcDbSymbolTable
70
2
0
APPID
5
12
100
AcDbSymbolTableRecord
100
AcDbRegAppTableRecord
2
ACAD
70
0
0
ENDTAB
0
TABLE
2
DIMSTYLE
5
A
100
AcDbSymbolTable
70
1
0
ENDTAB
0
TABLE
2
BLOCK_RECORD
5
1
100
AcDbSymbolTable
70
1
0
BLOCK_RECORD
5
1F
100
AcDbSymbolTableRecord
100
AcDbBlockTableRecord
2
*MODEL_SPACE
0
BLOCK_RECORD
5
1B
100
AcDbSymbolTableRecord
100
AcDbBlockTableRecord
2
*PAPER_SPACE
0
ENDTAB
0
ENDSEC
0
SECTION
2
BLOCKS
0
BLOCK
5
20
100
AcDbEntity
100
AcDbBlockBegin
2
*MODEL_SPACE
0
ENDBLK
5
21
100
AcDbEntity
100
AcDbBlockEnd
0
BLOCK
5
1C
100
AcDbEntity
100
AcDbBlockBegin
2
*PAPER_SPACE
0
ENDBLK
5
1D
100
AcDbEntity
100
AcDbBlockEnd
0
ENDSEC
0
SECTION
2
ENTITIES
0
SPLINE
5
100
100
AcDbEntity
8
0
100
AcDbSpline
70
0
71
3
72
203
73
199
74
0
42
0.000000001
43
0.0000000001
44
0.0000000001
40
0
40
0
40
0
40
0
40
1.2657333236566701
40
1.2657333236566701
40
1.2657333236566701
40
2.5045002976355883
40
2.5045002976355883
40
2.5045002976355883
40
3.7191863429563203
40
3.7191863429563203
40
3.7191863429563203
40
4.9121684127213001
40
4.9121684127213001
40
4.9121684127213001
40
6.0854333261490243
40
6.0854333261490243
40
6.0854333261490243
40
7.2406631306817193
40
7.2406631306817193
40
7.2406631306817193
40
8.3792979158907315
40
8.3792979158907315
40
8.3792979158907315
40
9.5025828915578678
40
9.5025828915578678
40
9.5025828915578678
40
10.611604267689446
40
10.611604267689446
40
10.611604267689446
40
11.707317018820563
40
11.707317018820563
40
11.707317018820563
40
12.790566666482425
40
12.790566666482425
40
12.790566666482425
40
13.862106583812833
40
13.862106583812833
40
13.862106583812833
40
14.922611900213566
40
14.922611900213566
40
14.922611900213566
40
15.97269079066192
40
15.97269079066192
40
15.97269079066192
40
17.012893729040616
40
17.012893729040616
40
17.012893729040616
40
18.043721139002017
40
18.043721139002017
40
18.043721139002017
40
19.065629770747801
40
19.065629770747801
40
19.065629770747801
40
20.079038055303567
40
20.079038055303567
40
20.079038055303567
40
21.084330631064905
40
21.084330631064905
40
21.084330631064905
40
22.081862194892775
40
22.081862194892775
40
22.081862194892775
40
23.07196079789626
40
23.07196079789626
40
23.07196079789626
40
24.054930681489932
40
24.054930681489932
40
24.054930681489932
40
25.031054730382937
40
25.031054730382937
40
25.031054730382937
40
26.000596604432062
40
26.000596604432062
40
26.000596604432062
40
26.963802599742689
40
26.963802599742689
40
26.963802599742689
40
27.920903280274221
40
27.920903280274221
40
27.920903280274221
40
28.872114913940234
40
28.872114913940234
40
28.872114913940234
40
29.817640741369015
40
29.817640741369015
40
29.817640741369015
40
30.757672100791051
40
30.757672100791051
40
30.757672100791051
40
31.692389428705649
40
31.692389428705649
40
31.692389428705649
40
32.665497667552216
40
32.665497667552216
40
32.665497667552216
40
33.60819627393483
40
33.60819627393483
40
33.60819627393483
40
34.540150104747426
40
34.540150104747426
40
34.540150104747426
40
35.466471649634087
40
35.466471649634087
40
35.466471649634087
40
36.387349790183478
40
36.387349790183478
40
36.387349790183478
40
37.30296421657436
40
37.30296421657436
40
37.30296421657436
40
38.213486092402078
40
38.213486092402078
40
38.213486092402078
40
39.119078657955654
40
39.119078657955654
40
39.119078657955654
40
40.019897778893771
40
40.019897778893771
40
40.019897778893771
40
40.916092446350241
40
40.916092446350241
40
40.916092446350241
40
41.807805233719868
40
41.807805233719868
40
41.807805233719868
40
42.69517271471085
40
42.69517271471085
40
42.69517271471085
40
43.578325846681103
40
43.578325846681103
40
43.578325846681103
40
44.457390322787667
40
44.457390322787667
40
44.457390322787667
40
45.332486896057873
40
45.332486896057873
40
45.332486896057873
40
46.203731678127582
40
46.203731678127582
40
46.203731678127582
40
47.071236415077152
40
47.071236415077152
40
47.071236415077152
40
47.935108742522239
40
47.935108742522239
40
47.935108742522239
40
48.795452421878259
40
48.795452421878259
40
48.795452421878259
40
49.672727462498109
40
49.672727462498109
40
49.672727462498109
40
50.535876343520911
40
50.535876343520911
40
50.535876343520911
40
51.394406270832363
40
51.394406270832363
40
51.394406270832363
40
52.248530337455925
40
52.248530337455925
40
52.248530337455925
40
53.098453216069586
40
53.098453216069586
40
53.098453216069586
40
53.944371781396839
40
53.944371781396839
40
53.944371781396839
40
54.786475682841228
40
54.786475682841228
40
54.786475682841228
40
55.624947872593296
40
55.624947872593296
40
55.624947872593296
40
56.459965093828494
40
56.459965093828494
40
56.459965093828494
40
57.300583820442675
40
57.300583820442675
40
57.300583820442675
40
58.13568068957084
40
58.13568068957084
40
58.13568068957084
40
58.965823964977439
40
58.965823964977439
40
58.965823964977439
40
59.791553675996383
40
59.791553675996383
40
59.791553675996383
40
60.621365776788004
40
60.621365776788004
40
60.621365776788004
40
61.443727636536238
40
61.443727636536238
40
61.443727636536238
40
62.267099830101117
40
62.267099830101117
40
62.267099830101117
40
62.831853071795862
40
62.831853071795862
40
62.831853071795862
40
62.831853071795862
10
-1.2000000000000002
20
0
30
0
10
-1.2402895430192187
20
-0.50629332946266803
30
0
10
-0.91618412553960082
20
-1.054068610997384
30
0
10
-0.39672721193116495
20
-1.2598815240100856
30
0
10
0.11166271267328186
20
-1.461309608973492
30
0
10
0.77164084621032802
20
-1.3103300258814718
30
0
10
1.1568399883046114
20
-0.856101026913897
30
0
10
1.5345510771533577
20
-0.41070198252888912
30
0
10
1.6142934625904672
20
0.30048998668516519
30
0
10
1.3028770621713606
20
0.84913012159880696
30
0
10
0.99702504109817125
20
1.3879671702557641
30
0
10
0.32682756837811533
20
1.7303803110732996
30
0
10
-0.33123370181793244
20
1.6358802027152277
30
0
10
-0.97841878428845597
20
1.5429419563981763
30
0
10
-1.5729322846442175
20
1.0255887804619217
30
0
10
-1.7464033952514457
20
0.34992807859357022
30
0
10
-1.9172079551639951
20
-0.31534655087559321
30
0
10
-1.6631130882454142
20
-1.0974097081963541
30
0
10
-1.0886788025300225
20
-1.5467045541236195
30
0
10
-0.52249633652550542
20
-1.9895452239026077
30
0
10
0.32808764716280442
20
-2.0798203594443208
30
0
10
1.0030555805426928
20
-1.7304726430458444
30
0
10
1.668924345902387
20
-1.3858344445544832
30
0
10
2.1267396639343188
20
-0.6256703117412834
30
0
10
2.1010542645989578
20
0.16380304821846933
30
0
10
2.0756950213664265
20
0.94325158625467598
30
0
10
1.574533539518586
20
1.7129328130083037
30
0
10
0.82912438936081312
20
2.052169148123014
30
0
10
0.092660396676889217
20
2.3873345345006309
30
0
10
-0.85013662171060012
20
2.2817773971345456
30
0
10
-1.5139899724702366
20
1.7552215551311456
30
0
10
-2.1702923724990471
20
1.2346549835222485
30
0
10
-2.5215743319305997
20
0.32178037004025173
30
0
10
-2.3608089216322599
20
-0.5383339926412829
30
0
10
-2.2017813559806116
20
-1.3891506765624779
30
0
10
-1.5437361983474427
20
-2.1512053637716089
30
0
10
-0.68545874896050774
20
-2.4288635087298331
30
0
10
0.16398025307812855
20
-2.7036623604644117
30
0
10
1.1762498464124949
20
-2.4883889688966319
30
0
10
1.8562453185636929
20
-1.8560715982357132
30
0
10
2.5295553716710719
20
-1.229970896309633
30
0
10
2.8476701710936125
20
-0.21637486049637514
30
0
10
2.6303413105903735
20
0.71305930801932993
30
0
10
2.415056419763324
20
1.633752183491572
30
0
10
1.6784316817272524
20
2.4360930275336208
30
0
10
0.74215206019946189
20
2.7253699679369667
30
0
10
-0.1856887116824596
20
3.0120396054043614
30
0
10
-1.2769421173024402
20
2.780589076772749
30
0
10
-2.0242381072397237
20
2.1087134244660142
30
0
10
-2.7650684491633211
20
1.4426508790610648
30
0
10
-3.1392224025843589
20
0.3643719221617539
30
0
10
-2.9503939195038886
20
-0.64761304700770339
30
0
10
-2.7631361322916059
20
-1.6511802150922192
30
0
10
-2.0250019052196482
20
-2.5546948741633297
30
0
10
-1.0434764091679654
20
-2.9375811027300176
30
0
10
-0.069811293993031903
20
-3.3174010517134409
30
0
10
1.1125232299141452
20
-3.1690916936675659
30
0
10
1.9802766858847658
20
-2.5307069456316555
30
0
10
2.8413309528934114
20
-1.8972506251670902
30
0
10
3.363099697178134
20
-0.79878873874777456
30
0
10
3.295058418321565
20
0.29972928134890431
30
0
10
3.2275241391214688
20
1.3900618547847008
30
0
10
2.5777784712011291
20
2.4464040947947456
30
0
10
1.6015909802057327
20
3.0027894358166378
30
0
10
0.63243204848066092
20
3.5551687970625294
30
0
10
-0.63081464348797645
20
3.5953731194655942
30
0
10
-1.6550203446120264
20
3.0806578719910465
30
0
10
-2.6720930266615333
20
2.5695273279351238
30
0
10
-3.4222486202021378
20
1.5234560171568379
30
0
10
-3.571743587787644
20
0.36445513804439106
30
0
10
-3.7202304847124141
20
-0.78673039583690207
30
0
10
-3.2689774974140837
20
-2.0168386406637513
30
0
10
-2.3808464746566886
20
-2.8098276781588494
30
0
10
-1.4985193172244564
20
-3.5976345956063178
30
0
10
-0.20765126226833699
20
-3.9299847552577072
30
0
10
0.97140825830551814
20
-3.6477232349202318
30
0
10
2.1429942690056407
20
-3.367250839069186
30
0
10
3.1717734011925165
20
-2.4848596699055236
30
0
10
3.6272802129360699
20
-1.3381802063008008
30
0
10
4.079984288231425
20
-0.19855626907721732
30
0
10
3.9519878526436836
20
1.1729471921919343
30
0
10
3.2708721404097192
20
2.2270851585143059
30
0
10
2.5938277534495748
20
3.274922083079316
30
0
10
1.3855694911328611
20
3.9806981104376833
30
0
10
0.11124617092358978
20
4.0458458038878078
30
0
10
-1.1556720329895152
20
4.1106149228907931
30
0
10
-2.4560383437951798
20
3.5380280049554242
30
0
10
-3.2727322456379753
20
2.5308421615853138
30
0
10
-4.0848093471125422
20
1.52934997646593
30
0
10
-4.3967224055365257
20
0.12133171440447732
30
0
10
-4.0659108427680035
20
-1.1536152693906567
30
0
10
-3.7215121164129803
20
-2.4809271496481942
30
0
10
-2.683349873593893
20
-3.6266433631388386
30
0
10
-1.3637376374202292
20
-4.0983887444966705
30
0
10
-0.085363283626990472
20
-4.5553920826870709
30
0
10
1.4233076737497732
20
-4.3672175205086328
30
0
10
2.5672700648720075
20
-3.5848932415593366
30
0
10
3.6981936978270733
20
-2.8114858091433579
30
0
10
4.4437317054902286
20
-1.4748176235368893
30
0
10
4.4976628503482852
20
-0.078128144038125291
30
0
10
4.5512680610043343
20
1.3101204081977269
30
0
10
3.9180488126090429
20
2.724674765902618
30
0
10
2.8189200289595
20
3.6183436759930232
30
0
10
1.7262501282120808
20
4.5067610605757649
30
0
10
0.19716876851378212
20
4.858001337891606
30
0
10
-1.1974203569391972
20
4.5187764606186578
30
0
10
-2.5840380492549206
20
4.1814905834270402
30
0
10
-3.8056396696158257
20
3.1671943355542753
30
0
10
-4.3933612389571906
20
1.8375654241015567
30
0
10
-4.9778139631136558
20
0.51533176797318392
30
0
10
-4.920497406006783
20
-1.0901590859157886
30
0
10
-4.2216467736319814
20
-2.3857189239544745
30
0
10
-3.5265795227373058
20
-3.6742649640933509
30
0
10
-2.2102479497939114
20
-4.627196477451216
30
0
10
-0.74161428423449105
20
-4.8795619112572348
30
0
10
0.71927810591079056
20
-5.1305971084127417
30
0
10
2.3000540590781613
20
-4.6811195980317724
30
0
10
3.4228917865080293
20
-3.6742980974186685
30
0
10
4.5399653036572261
20
-2.6726452250969555
30
0
10
5.1791562563590334
20
-1.1388399487685892
30
0
10
5.0926929093359536
20
0.38465666496642525
30
0
10
5.0066619665296566
20
1.9005342541932368
30
0
10
4.2020883407557967
20
3.3750521977134227
30
0
10
2.9476392344735696
20
4.2745684167429916
30
0
10
1.6993030445702746
20
5.1697013033592452
30
0
10
0.029462651926997485
20
5.475939186119593
30
0
10
-1.4769656598191028
20
5.0661856729824777
30
0
10
-2.9762395346307846
20
4.6583781904964976
30
0
10
-4.2836240907127365
20
3.547657381697837
30
0
10
-4.9298677815740106
20
2.1074312522378964
30
0
10
-5.5731196152359361
20
0.67387281017676415
30
0
10
-5.5472775257432154
20
-1.0591317716326745
30
0
10
-4.8422941231823744
20
-2.4908273507039049
30
0
10
-4.1404928599510589
20
-3.9160605722309438
30
0
10
-2.7774521187047041
20
-5.0148474234961435
30
0
10
-1.2098497906950407
20
-5.3949393411550854
30
0
10
0.35085263959208757
20
-5.7733582609432341
30
0
10
2.0855739502989685
20
-5.4306805720409113
30
0
10
3.3992362294673417
20
-4.4655583735372231
30
0
10
4.7072592711931183
20
-3.5045792134116556
30
0
10
5.5728344125574836
20
-1.9427905612757026
30
0
10
5.6870794840673717
20
-0.29972103838459041
30
0
10
5.8008461894474657
20
1.3364686357895417
30
0
10
5.1658824307741913
20
3.0238331719330347
30
0
10
3.9784498872077161
20
4.1893969061815426
30
0
10
2.7958676339476147
20
5.3501996773653984
30
0
10
1.0852066957637061
20
5.9716963685058309
30
0
10
-0.58945370461668523
20
5.8298987851059136
30
0
10
-2.2970710278099373
20
5.685310658614334
30
0
10
-3.9353910454399612
20
4.7461707437619314
30
0
10
-4.9294809641146129
20
3.3202671940221391
30
0
10
-5.9075637331556763
20
1.9173239932960253
30
0
10
-6.243498048920638
20
0.068508811099080857
30
0
10
-5.8068770969305401
20
-1.6095631891905078
30
0
10
-5.3725926271059059
20
-3.2786553517440309
30
0
10
-4.1802400760192544
20
-4.7489976917956449
30
0
10
-2.6118979174661217
20
-5.5211649522716417
30
0
10
-1.0516042809757753
20
-6.2893695537078322
30
0
10
0.85449028847283059
20
-6.3519697134292228
30
0
10
2.479913916401729
20
-5.6708281896604351
30
0
10
4.0973425579773455
20
-4.9930370030552114
30
0
10
5.4088886706085129
20
-3.5889850844833648
30
0
10
5.974265534776614
20
-1.9046476051541839
30
0
10
6.5369786912766621
20
-0.22824568694117753
30
0
10
6.3498557948668761
20
1.6983652478206177
30
0
10
5.4563796886505331
20
3.2506975670269602
30
0
10
4.5669327067166989
20
4.7960296544438661
30
0
10
2.9908293510459254
20
5.9445234477061586
30
0
10
1.2235024818202302
20
6.3142777172699214
30
0
10
-0.53620249936515141
20
6.682437360681547
30
0
10
-2.4575105737117453
20
6.2713263530192309
30
0
10
-3.9256751582308924
20
5.1954306662838921
30
0
10
-5.3877900937824368
20
4.1239682640039463
30
0
10
-6.3766122663246829
20
2.4090324345037826
30
0
10
-6.5656149002896322
20
0.58391983992335905
30
0
10
-6.7558854114239066
20
-1.253436068634074
30
0
10
-6.1303468423709511
20
-3.1733938539438409
30
0
10
-4.8729610503127425
20
-4.5571045405025812
30
0
10
-3.6238347758323224
20
-5.9317259063370127
30
0
10
-1.7701006081934325
20
-6.7545584951355444
30
0
10
0.10948235140903519
20
-6.7506608359505034
30
0
10
1.9779160770818263
20
-6.7467862967420578
30
0
10
3.842977001677641
20
-5.9248758916101369
30
0
10
5.1154177997937742
20
-4.5268777242652494
30
0
10
6.3810935013797776
20
-3.1363121954879345
30
0
10
7.0404206616748848
20
-1.1960431063645374
30
0
10
6.8742553509663251
20
0.69870700900368132
30
0
10
6.7072685225674631
20
2.6028247278255918
30
0
10
5.7071849880324947
20
4.4318804280514552
30
0
10
4.1720150252180552
20
5.6070678343929785
30
0
10
2.6506281661383335
20
6.7717041419495541
30
0
10
0.62600560898661173
20
7.2760439961231151
30
0
10
-1.2838483142100388
20
6.9498557656383575
30
0
10
-3.1960486375717552
20
6.6232667882124039
30
0
10
-4.9645963009930254
20
5.4673461378251904
30
0
10
-6.0364332347614678
20
3.8246294970755956
30
0
10
-6.7716091219784875
20
2.6978856559549342
30
0
10
-7.1820233459914187
20
1.3554077800674069
30
0
10
-7.1999999999999993
20
1.7634913907721887e-14
30
0
0
ENDSEC
0
SECTION
2
OBJECTS
0
DICTIONARY
5
C
100
AcDbDictionary
3
ACAD_GROUP
350
D
3
ACAD_MLINESTYLE
350
17
0
DICTIONARY
5
D
100
AcDbDictionary
0
DICTIONARY
5
1A
330
C
100
AcDbDictionary
0
DICTIONARY
5
17
100
AcDbDictionary
0
ENDSEC
0
EOF
